<?xml version="1.0" standalone="no"?>
<!DOCTYPE svg PUBLIC "-//W3C//DTD SVG 20010904//EN"
 "http://www.w3.org/TR/2001/REC-SVG-20010904/DTD/svg10.dtd">
<svg version="1.0" xmlns="http://www.w3.org/2000/svg"
 width="1015.000000pt" height="400.000000pt" viewBox="0 0 1015.000000 400.000000"
 preserveAspectRatio="xMidYMid meet">

<g transform="translate(0.000000,400.000000) scale(0.100000,-0.100000)"
fill="#000000" stroke="none">
<path d="M5682 3800 c-70 -25 -114 -53 -153 -97 -70 -80 -76 -146 -23 -252
l36 -71 -31 -49 c-68 -111 -67 -195 2 -258 23 -21 54 -47 69 -58 l27 -20 -9
-190 c-5 -104 -9 -206 -10 -225 0 -47 -12 -30 -44 65 -32 92 -97 218 -168 323
l-49 73 28 57 c54 110 30 267 -47 307 -16 8 -38 15 -48 15 -17 0 -19 7 -18 54
1 100 -72 165 -174 153 l-50 -6 0 40 c0 90 -56 139 -159 139 -84 0 -141 -27
-182 -86 -20 -29 -37 -44 -52 -44 -30 0 -120 -53 -140 -83 -8 -13 -20 -43 -27
-66 -9 -35 -8 -48 9 -85 24 -55 71 -87 169 -116 39 -12 72 -23 72 -25 0 -1 -7
-19 -15 -38 -24 -58 -20 -102 10 -115 37 -17 99 -14 182 7 l72 19 -27 -40
c-33 -51 -36 -125 -6 -166 49 -65 107 -84 185 -61 36 11 40 10 86 -24 53 -39
130 -117 184 -187 42 -53 117 -164 124 -182 4 -10 -29 -13 -152 -14 -185 0
-255 -14 -382 -75 -153 -75 -268 -217 -316 -394 -9 -33 -19 -117 -22 -187 -5
-115 -3 -135 17 -199 47 -144 130 -240 390 -449 248 -200 387 -351 461 -500
l31 -64 35 42 c19 23 38 42 42 42 5 0 16 -21 26 -48 69 -180 247 -339 493
-438 184 -73 347 -115 532 -135 329 -36 675 104 855 345 201 270 235 599 90
886 -84 166 -264 338 -455 435 -63 32 -62 30 37 -78 108 -119 142 -184 111
-215 -20 -20 -58 -14 -245 33 -98 25 -208 48 -245 52 l-66 6 -10 -39 c-6 -22
-13 -75 -17 -119 -11 -143 -34 -195 -85 -195 -50 0 -78 40 -129 184 -17 48
-39 101 -48 117 -13 22 -14 33 -6 52 15 32 9 37 -46 37 -53 0 -98 -20 -260
-114 -63 -36 -121 -66 -129 -66 -39 0 36 156 137 287 39 51 71 96 71 100 0 4
-53 35 -118 68 -125 64 -154 94 -132 135 32 60 249 38 433 -44 l56 -24 5 26
c3 15 11 68 17 118 12 91 12 92 -15 145 -19 37 -47 70 -89 103 -129 102 -271
145 -510 155 l-159 6 105 126 c130 155 272 288 353 331 l61 31 47 -22 c105
-51 214 20 202 131 l-5 47 59 -2 c46 -2 64 2 86 19 50 37 68 69 66 123 l-1 51
59 -7 c59 -6 60 -5 99 33 43 44 66 108 56 156 -9 41 -60 95 -95 103 -22 5 -32
14 -36 33 -16 65 -99 110 -181 97 -36 -5 -56 -16 -85 -45 -21 -21 -38 -47 -38
-59 0 -25 -16 -27 -59 -5 -29 14 -34 14 -68 -3 -69 -34 -113 -144 -89 -220 6
-17 3 -20 -18 -16 -72 14 -156 -59 -156 -135 0 -23 6 -58 14 -76 l14 -34 -55
-53 c-44 -44 -51 -48 -39 -24 20 38 20 43 -4 90 l-20 38 34 33 c34 33 56 97
56 162 0 59 -47 124 -105 145 -5 2 -2 13 8 24 22 25 22 94 0 140 -51 108 -165
148 -291 103z m227 -867 c-78 -108 -167 -248 -200 -315 -18 -38 -36 -68 -40
-68 -11 0 33 133 76 230 20 47 45 108 55 135 l17 50 48 2 c27 1 53 7 59 13 5
5 14 10 19 10 4 0 -11 -26 -34 -57z m1641 -1967 c0 -77 -46 -251 -91 -344 -27
-55 -58 -100 -94 -137 -97 -96 -215 -147 -215 -92 0 15 19 37 64 72 115 89
177 196 241 415 20 69 43 130 52 137 28 22 43 4 43 -51z"/>
<path d="M400 1867 c0 -260 -2 -296 -16 -301 -9 -3 -71 -6 -138 -6 l-122 0 4
108 c1 59 7 188 12 287 5 99 6 183 4 187 -3 4 -35 8 -71 8 l-66 0 6 -247 c4
-137 7 -353 7 -480 l0 -233 50 0 50 0 0 135 0 135 135 0 135 0 0 -135 0 -135
50 0 50 0 0 73 c0 74 21 429 42 714 6 90 9 165 7 167 -3 3 -35 8 -72 12 l-67
7 0 -296z"/>
<path d="M2330 2045 l0 -115 -75 0 -75 0 0 -40 0 -40 74 0 74 0 6 -31 c3 -17
6 -168 6 -335 l0 -304 40 0 40 0 0 289 c0 158 3 309 6 335 l7 46 63 0 64 0 0
40 0 40 -65 0 -65 0 0 109 c0 120 0 121 -72 121 l-28 0 0 -115z"/>
<path d="M2636 1823 c2 -181 7 -397 10 -480 l6 -153 27 0 c14 0 31 4 37 8 6 4
21 54 34 112 49 231 134 436 193 467 29 15 32 14 48 -6 23 -28 36 -114 49
-321 6 -96 13 -194 16 -217 5 -42 6 -43 45 -43 l39 0 0 88 c0 191 -36 487 -66
549 -58 117 -189 52 -288 -142 l-45 -90 0 278 -1 277 -55 0 -54 0 5 -327z"/>
<path d="M1993 1909 c4 -129 7 -345 7 -481 l0 -248 39 0 38 0 7 471 c5 259 6
472 4 474 -1 2 -25 6 -52 10 l-49 8 6 -234z"/>
<path d="M8805 2118 c-2 -7 -18 -67 -35 -133 -33 -126 -95 -342 -112 -385 -9
-23 -10 -24 -22 -7 -8 9 -42 132 -77 272 l-63 255 -69 0 c-66 0 -68 -1 -61
-22 25 -83 121 -344 167 -453 l55 -130 7 -178 7 -178 42 3 41 3 11 180 11 180
60 145 c33 80 83 208 111 285 28 77 54 148 57 158 6 15 0 17 -59 17 -44 0 -68
-4 -71 -12z"/>
<path d="M6920 2013 c-108 -18 -316 -65 -324 -73 -7 -7 -11 -109 -10 -298 1
-236 4 -293 17 -322 l15 -35 6 35 c3 19 8 71 12 115 7 98 24 142 59 155 54 21
149 11 323 -33 94 -24 169 -40 167 -36 -3 4 -59 67 -125 141 -66 73 -120 138
-120 144 0 7 34 33 75 59 97 60 122 107 77 143 -15 11 -114 15 -172 5z"/>
<path d="M847 1926 c-117 -33 -187 -127 -209 -283 -29 -202 43 -387 174 -443
139 -60 297 5 360 148 22 49 18 57 -29 67 -25 5 -33 3 -33 -7 0 -8 -16 -33
-36 -57 -141 -164 -344 -60 -344 176 l0 53 246 0 247 0 -6 60 c-15 173 -114
283 -265 295 -33 3 -78 -1 -105 -9z m161 -107 c48 -24 102 -95 102 -136 l0
-23 -191 0 -190 0 6 23 c16 51 40 89 69 111 66 49 136 58 204 25z"/>
<path d="M1498 1917 c-71 -20 -124 -60 -158 -120 -16 -28 -30 -58 -30 -65 0
-13 34 -29 81 -39 24 -4 28 -1 34 27 10 44 75 107 119 116 85 15 162 -31 185
-111 14 -51 26 -185 17 -185 -5 0 -20 9 -35 19 -118 85 -315 56 -394 -57 -30
-44 -32 -53 -32 -129 0 -76 2 -84 31 -120 51 -63 106 -88 194 -88 81 0 141 19
197 61 17 13 33 24 35 24 2 0 2 -16 0 -35 l-4 -35 46 0 c30 0 46 4 46 13 0 6
5 93 10 191 14 288 -9 409 -93 482 -62 52 -166 74 -249 51z m153 -427 c64 -32
99 -69 99 -102 0 -23 -11 -36 -60 -72 -182 -134 -376 -35 -280 143 32 60 152
75 241 31z"/>
<path d="M9187 1909 c-59 -14 -91 -34 -139 -88 -54 -60 -79 -128 -85 -238 -12
-188 69 -354 201 -414 138 -63 288 46 341 246 35 135 11 312 -55 402 -53 72
-173 114 -263 92z m139 -90 c35 -16 49 -32 71 -77 53 -109 41 -328 -23 -425
-52 -78 -144 -101 -216 -52 -113 76 -145 370 -55 503 46 68 143 90 223 51z"/>
<path d="M3280 1894 c0 -5 -5 -82 -10 -172 -18 -285 11 -477 81 -537 91 -76
199 -22 280 138 l41 82 -5 -130 c-5 -141 -22 -207 -64 -264 -56 -73 -162 -80
-256 -16 l-36 24 -22 -35 c-20 -33 -20 -36 -4 -54 29 -32 119 -60 194 -60 137
0 224 76 255 223 9 42 19 183 26 342 6 149 14 309 17 358 l6 87 -46 0 -45 0
-7 -42 c-53 -354 -143 -588 -224 -588 -65 0 -92 87 -91 290 0 80 6 190 14 245
7 55 11 102 10 104 -8 9 -114 13 -114 5z"/>
<path d="M9645 1724 c-12 -212 -2 -377 25 -449 71 -184 222 -161 332 51 20 39
35 58 40 51 4 -7 8 -58 8 -114 l0 -103 35 0 c44 0 43 -11 49 378 l4 312 -37 0
-37 0 -13 -91 c-31 -217 -117 -467 -176 -505 -13 -8 -38 -14 -56 -12 -46 4
-67 45 -81 154 -11 83 -4 236 19 417 l6 47 -56 0 -55 0 -7 -136z"/>
</g>
</svg>
