<svg id="Capa_1" enable-background="new 0 0 512 512" height="512" viewBox="0 0 512 512" width="512" xmlns="http://www.w3.org/2000/svg"><g><g><path d="m390.674 230.972c-.29-.008-.577-.001-.865-.002-6.406-12.17-19.102-20.012-33.183-20.012-5.333 0-10.405 1.126-15.002 3.142-4.71-2.054-9.818-3.142-14.998-3.142-14.419 0-26.955 8.185-33.228 20.148-16.658 1.428-30.242 13.783-33.517 29.852h-25.255c-.044 0-.088 0-.132.001-28.888.504-56.507 12.304-77.144 34.2-19.491 20.681-30.225 47.734-30.225 76.176 0 9.039-3.52 17.536-9.912 23.928l-30.142 30.142c-2.929 2.93-2.929 7.678 0 10.607 2.929 2.928 7.678 2.928 10.606 0l30.142-30.142c9.225-9.226 14.305-21.49 14.305-34.535 0-51.874 40.59-94.434 92.566-95.377h69.934c12.406 0 22.5 10.094 22.5 22.5 0 11.709-9.143 22.5-23.216 22.5-16.177 0-31.637 5.051-44.709 14.604-.008.006-.016.011-.023.017-3.182 2.333-6.161 4.882-8.855 7.575-2.849 2.849-2.938 7.439-.203 10.396 2.737 2.959 7.32 3.225 10.381.607l3.832-3.278c11.925 6.706 25.186 10.078 40.293 10.078 17.113 0 33.682-7.159 45.456-19.642 10.991-11.651 17.044-26.872 17.044-42.858v-30c0-6.127 2.419-11.854 6.812-16.128 4.391-4.271 10.183-6.535 16.325-6.363 12.056.331 21.863 10.7 21.863 23.115v40.688c0 27.471-10.376 53.618-29.223 73.643-39.088 38.603-84.682 65.519-135.521 80.006-18.438 5.254-35.387 15.234-49.016 28.864l-6.845 6.916c-2.929 2.929-2.929 7.678 0 10.606 1.464 1.464 3.384 2.196 5.303 2.196s3.839-.732 5.303-2.197l8.958-8.958c11.829-11.828 24.418-18.446 40.406-23.002 53.334-15.198 101.126-43.412 142.05-83.857.062-.062.124-.124.185-.188 21.537-22.832 33.398-52.674 33.398-84.029v-40.688c.003-20.462-16.349-37.559-36.448-38.109zm-101.518 16.265c-.013.406-.031.811-.031 1.22v12.5h-13.71c2.267-6.392 7.345-11.462 13.741-13.72zm14.969 13.72v-12.5c0-12.406 10.094-22.5 22.5-22.5h.02c-4.719 6.272-7.52 14.064-7.52 22.5v15.419c-4.463-1.878-9.362-2.919-14.5-2.919zm59.352-19.379c-7.32 7.122-11.352 16.668-11.352 26.879v30c0 12.144-4.601 23.709-12.956 32.565-9.084 9.631-21.352 14.935-34.544 14.935-8.73 0-16.662-1.061-25.649-4.661 8.528-3.852 16.855-5.339 25.649-5.339 20.678 0 37.5-16.822 37.5-37.5 0-8.714-2.996-16.736-8-23.11v-26.89c0-12.406 10.094-22.5 22.5-22.5 6.93 0 13.289 3.176 17.477 8.341-3.881 1.768-7.471 4.211-10.625 7.28z"/><path d="m327.126 203.5c4.143 0 7.5-3.357 7.5-7.5v-42.548c.999.463 2.076.704 3.156.704 1.919 0 3.839-.732 5.304-2.196 2.929-2.93 2.929-7.678 0-10.607-.339-.339-10.396-10.401-10.739-10.731-1.384-1.344-3.203-2.069-5.043-2.113-2.16-.035-4.075.794-5.482 2.188l-10.656 10.656c-2.929 2.93-2.929 7.678 0 10.607 2.289 2.288 5.685 2.779 8.46 1.492v42.548c0 4.143 3.357 7.5 7.5 7.5z"/><path d="m202.157 92.805c1.466 1.451 3.405 2.196 5.303 2.196 1.902 0 3.835-.744 5.303-2.196l10.656-10.656c2.929-2.93 2.929-7.678 0-10.607-2.288-2.288-5.685-2.779-8.459-1.492v-62.55c0-4.143-3.358-7.5-7.5-7.5s-7.5 3.357-7.5 7.5v62.549c-2.774-1.288-6.171-.796-8.46 1.493-2.929 2.929-2.929 7.678 0 10.606z"/><path d="m369.553 102.402c23.394-23.395 23.394-61.459 0-84.854-23.396-23.394-61.46-23.394-84.853 0-11.317 11.316-17.55 26.384-17.55 42.427 0 16.042 6.232 31.109 17.549 42.427 23.395 23.393 61.459 23.394 84.854 0zm-74.246-74.246c8.772-8.773 20.296-13.159 31.819-13.159s23.047 4.386 31.819 13.159c17.546 17.545 17.546 46.094 0 63.639-17.545 17.547-46.094 17.547-63.639 0-8.484-8.483-13.156-19.784-13.156-31.819 0-12.037 4.672-23.337 13.157-31.82z"/><path d="m327.126 89.976c16.542 0 30-13.458 30-30s-13.458-30-30-30c-4.143 0-7.5 3.357-7.5 7.5s3.357 7.5 7.5 7.5c8.271 0 15 6.729 15 15s-6.729 15-15 15c-3.851 0-7.515-1.466-10.316-4.127-3.004-2.853-7.751-2.729-10.604.273-2.853 3.004-2.729 7.751.273 10.604 5.603 5.32 12.935 8.25 20.647 8.25z"/><path d="m162.408 256.88c6.579 6.579 15.982 8.415 24.521 4.877 8.567-3.549 13.889-11.514 13.889-20.787l-.001-25.724c0-.074.036-.123.064-.15 12.067 2.151 24.433-1.728 33.095-10.391 8.63-8.63 12.523-20.969 10.414-33.005-.016-.089-.003-.141-.012-.155l25.863.002c9.273 0 17.238-5.322 20.787-13.89s1.68-17.963-4.877-24.521l-33.64-33.64c-6.557-6.557-15.953-8.423-24.52-4.877-8.567 3.549-13.89 11.514-13.89 20.788l.038 25.822c-.016.015-.068.047-.191.027-12.04-2.108-24.375 1.785-33.004 10.414-8.627 8.627-12.522 20.963-10.418 32.997.016.094.001.146.007.161h-25.854c-9.273 0-17.238 5.322-20.787 13.89-3.549 8.567-1.681 17.963 4.877 24.521zm-24.658-52.42c.45-1.086 2.279-4.63 6.929-4.63h25.877c4.421 0 8.586-1.938 11.426-5.319 2.889-3.438 4.099-7.967 3.319-12.426-1.263-7.226 1.073-14.63 6.25-19.807 5.176-5.177 12.578-7.518 19.809-6.245 4.458.781 8.988-.428 12.427-3.316 3.38-2.839 5.318-7.003 5.318-11.423l-.002-25.887c0-4.649 3.544-6.479 4.63-6.929s4.886-1.662 8.173 1.626l33.639 33.64c3.288 3.287 2.076 7.087 1.626 8.173s-2.279 4.63-6.928 4.63l-25.888-.002s-.002 0-.003 0c-4.418 0-8.581 1.938-11.419 5.316-2.889 3.439-4.098 7.969-3.316 12.428 1.266 7.227-1.069 14.632-6.246 19.81-5.282 5.282-12.529 7.551-19.895 6.223-4.342-.784-8.79.402-12.2 3.253-3.469 2.899-5.459 7.154-5.458 11.673l.001 25.723c0 4.65-3.543 6.479-4.629 6.929-1.086.451-4.884 1.664-8.174-1.626l-33.639-33.638c-3.29-3.29-2.077-7.09-1.627-8.176z"/></g></g></svg>