<svg id="Capa_1" enable-background="new 0 0 512 512" height="512" viewBox="0 0 512 512" width="512" xmlns="http://www.w3.org/2000/svg"><g><g><path d="m426.149 21.6c-13.747-13.748-32.323-21.6-52.149-21.6h-224.24c-14.313 0-20.246 18.111-9.28 26.649 13.991 10.919 22.271 28.169 22.271 47.101v281.39c0 4.13 3.359 7.5 7.5 7.5 4.14 0 7.5-3.37 7.5-7.5v-281.39c0-22.772-9.815-44.591-27.82-58.75h224.069c15.68 0 30.439 6.109 41.54 17.21 11.1 11.1 17.21 25.859 17.21 41.54v364.5c.01 32.257-26.253 58.601-58.552 58.748-32.284-.151-58.538-26.518-58.538-58.809 0-24.951 20.33-45.375 45.328-45.546 23.033.148 41.762 19.045 41.762 42.143 0 17.763-14.704 32.214-32.778 32.214-10.996 0-19.941-8.864-19.941-19.76 0-2.42.587-4.677 1.745-6.707 2.054-3.598.801-8.178-2.797-10.23-3.599-2.056-8.179-.8-10.23 2.797-2.433 4.262-3.718 9.151-3.718 14.141 0 19.167 15.675 34.76 34.941 34.76 26.345 0 47.778-21.18 47.778-47.214 0-31.125-25.103-56.609-56.086-57.123-.154-.009-.307-.023-.464-.023h-236.4c-33.344 0-60.55 26.987-60.55 60.55 0 40.753 33.035 73.811 73.81 73.811h236.13.012.012.027c.023 0 .044-.003.067-.003 19.219-.107 37.85-7.613 51.881-21.687 13.496-13.494 21.561-31.98 21.561-52.06v-52.152c0-.06 0-.12 0-.18 0-99.75 0-307.16 0-312.17 0-19.785-7.821-38.371-21.601-52.15zm-288.089 475.4c-32.51 0-58.81-26.321-58.81-58.811 0-25.133 20.335-45.55 45.55-45.55h196.665c-12.73 11.119-20.804 27.43-20.804 45.55 0 23.957 11.518 45.31 29.303 58.811z"/><path d="m230.25 128.5h130c4.143 0 7.5-3.357 7.5-7.5s-3.357-7.5-7.5-7.5h-130c-4.143 0-7.5 3.357-7.5 7.5s3.357 7.5 7.5 7.5z"/><path d="m230.25 168.502h130c4.143 0 7.5-3.357 7.5-7.5s-3.357-7.5-7.5-7.5h-130c-4.143 0-7.5 3.357-7.5 7.5s3.357 7.5 7.5 7.5z"/><path d="m230.25 208.505h130c4.143 0 7.5-3.357 7.5-7.5s-3.357-7.5-7.5-7.5h-130c-4.143 0-7.5 3.357-7.5 7.5s3.357 7.5 7.5 7.5z"/><path d="m230.25 248.508h130c4.143 0 7.5-3.357 7.5-7.5s-3.357-7.5-7.5-7.5h-130c-4.143 0-7.5 3.357-7.5 7.5s3.357 7.5 7.5 7.5z"/><path d="m230.25 288.51h130c4.143 0 7.5-3.357 7.5-7.5s-3.357-7.5-7.5-7.5h-130c-4.143 0-7.5 3.357-7.5 7.5s3.357 7.5 7.5 7.5z"/><path d="m360.25 313.513h-79.997c-4.143 0-7.5 3.357-7.5 7.5s3.357 7.5 7.5 7.5h79.997c4.143 0 7.5-3.357 7.5-7.5s-3.357-7.5-7.5-7.5z"/></g></g></svg>