<svg id="Capa_1" enable-background="new 0 0 512 512" height="512" viewBox="0 0 512 512" width="512" xmlns="http://www.w3.org/2000/svg"><g><g><path d="m496.758 150.232v-31.219c0-12.406-10.094-22.5-22.5-22.5h-101.911l-44.433-44.433c-8.792-8.792-23.026-8.795-31.821 0l-44.433 44.433h-104.395c-17.332 0-35.258 12.624-35.258 33.75 0 .02.003.039.003.058v101.301c-62.267 2.88-112.01 54.073-112.01 117.393 0 64.79 52.71 117.5 117.5 117.5 48.562 0 90.338-29.613 108.218-71.73.144-.295.271-.599.376-.914 5.733-13.829 8.906-28.978 8.906-44.855 0-61.787-47.667-112.153-107.99-117.119v-73.283c5.4 3.53 11.76 5.4 18.4 5.4h344.12c4.184 0 7.47 3.435 7.47 7.5v74.167h-45.29c-6.872 0-13.275 3.077-17.568 8.443l-8.001 10c-6.621 8.276-6.621 19.836 0 28.112l8 9.998c4.292 5.368 10.696 8.446 17.569 8.446h45.29v65.833c-.01 4.13-3.37 7.489-7.5 7.5h-240.52c-4.13 0-7.5 3.37-7.5 7.5 0 4.14 3.37 7.5 7.5 7.5h.02 240.5c6.01 0 11.66-2.34 15.91-6.59 4.239-4.25 6.59-9.9 6.59-15.91 0-8.171 0-196.766 0-205 0-9.569-6.07-18.157-15.242-21.281zm-22.5-38.719c4.136 0 7.5 3.364 7.5 7.5v30h-56.911l-37.5-37.5zm-167.558-48.825c2.93-2.932 7.676-2.932 10.606 0l86.325 86.325h-21.211l-22.686-22.687c-2.929-2.929-7.678-2.929-10.607 0-20.47 20.47-53.776 20.47-74.246 0-2.929-2.929-7.678-2.929-10.606 0l-22.686 22.687h-21.213zm54.506 86.325h-17.91c3.782-1.974 7.416-4.329 10.841-7.069zm-80.495 0h-17.91l7.069-7.069c3.425 2.74 7.059 5.095 10.841 7.069zm-60.711 200.002c0 56.519-45.981 102.5-102.5 102.5s-102.5-45.982-102.5-102.5c0-57.066 46.262-102.523 102.404-102.523 53.564-.001 102.596 42.63 102.596 102.523zm-92.99-218.752c0-.013-.002-.024-.002-.037.023-12.906 11.853-18.713 20.257-18.713h89.395l-37.5 37.5h-53.65c-11.233-.043-18.5-8.674-18.5-18.75zm324.7 165.417c-2.291 0-4.425-1.025-5.855-2.815l-8.001-10c-2.207-2.759-2.207-6.611 0-9.37l8.001-10s0 0 0-.001c1.431-1.788 3.564-2.813 5.855-2.813h45.29v35h-45.29z"/><path d="m301.004 112.26c4.142 0 7.5-3.358 7.5-7.5.001-1.93 1.57-3.5 3.5-3.5s3.5 1.57 3.5 3.5c0 4.143 3.359 7.5 7.501 7.5 4.141 0 7.5-3.358 7.5-7.5-.001-10.201-8.3-18.5-18.5-18.5-10.201 0-18.5 8.3-18.5 18.5-.002 4.143 3.356 7.5 7.499 7.5z"/><path d="m117.5 363.75h-11.249c-4.142 0-7.5 3.358-7.5 7.5 0 4.143 3.358 7.499 7.5 7.499h3.502v.5c0 4.143 3.357 7.5 7.5 7.5 4.141 0 7.498-3.357 7.498-7.5v-1.961c6.747-2.842 11.496-9.52 11.496-17.287 0-10.337-8.411-18.748-18.747-18.748-2.068 0-3.75-1.682-3.75-3.748s1.682-3.749 3.75-3.749h9.751c4.143 0 7.5-3.357 7.5-7.499 0-4.144-3.356-7.5-7.5-7.5h-2.5c0-4.143-3.357-7.498-7.498-7.498-4.142 0-7.5 3.355-7.5 7.498v1.695c-6.479 2.955-11.002 9.479-11.002 17.053 0 10.337 8.41 18.747 18.748 18.747 2.068 0 3.75 1.684 3.75 3.749.001 2.068-1.683 3.749-3.749 3.749z"/><path d="m110 291.464c0 4.143 3.358 7.5 7.5 7.5 27.57 0 50 22.43 50 50s-22.43 50-50 50-50-22.43-50-50c0-4.143-3.358-7.5-7.5-7.5s-7.5 3.357-7.5 7.5c0 35.841 29.159 65 65 65s65-29.159 65-65-29.159-65-65-65c-4.142 0-7.5 3.357-7.5 7.5z"/></g></g></svg>