<svg id="Capa_1" enable-background="new 0 0 512 512" height="512" viewBox="0 0 512 512" width="512" xmlns="http://www.w3.org/2000/svg"><g><g><path d="m176.759 62.093c0-18.609-15.141-33.75-33.75-33.75h-33.25c-4.143 0-7.5 3.357-7.5 7.5v105c0 4.143 3.357 7.5 7.5 7.5h33.25c18.609 0 33.75-15.141 33.75-33.75 0-10.591-4.903-20.058-12.56-26.25 7.657-6.193 12.56-15.659 12.56-26.25zm-33.75 71.25h-25.75v-37.5h25.75c10.339 0 18.75 8.411 18.75 18.75s-8.411 18.75-18.75 18.75zm0-52.5h-25.75v-37.5h25.75c10.339 0 18.75 8.411 18.75 18.75s-8.411 18.75-18.75 18.75z"/><path d="m209.286 28.343c-4.143 0-7.5 3.357-7.5 7.5v63.353c0 27.1 22.206 49.147 49.5 49.147s49.5-22.048 49.5-49.147v-63.353c0-4.143-3.357-7.5-7.5-7.5s-7.5 3.357-7.5 7.5v63.353c0 18.829-15.477 34.147-34.5 34.147s-34.5-15.318-34.5-34.147v-63.353c0-4.143-3.357-7.5-7.5-7.5z"/><path d="m367.271 148.343c4.143 0 7.5-3.357 7.5-7.5v-50.03l33.72-50.823c2.29-3.452 1.348-8.106-2.104-10.396-3.453-2.29-8.106-1.348-10.396 2.104l-28.75 43.333-28.75-43.333c-2.291-3.451-6.945-4.394-10.396-2.104s-4.394 6.944-2.104 10.396l33.78 50.916v49.938c0 4.141 3.358 7.499 7.5 7.499z"/><path d="m399.75 0h-287.5c-21.852 0-40.461 13.333-48.37 32.059-2.74 6.48-4.13 13.35-4.13 20.44v73.339c0 28.99 23.498 52.499 52.5 52.499h169.202l-.001 52.615c-5.366-3.6-11.816-5.7-18.749-5.7-10.591 0-20.058 4.903-26.25 12.559-6.192-7.656-15.659-12.559-26.25-12.559-16.035 0-29.494 11.24-32.911 26.254-5.533-3.944-12.302-6.255-19.592-6.255-.008 0-.016 0-.023 0-18.28.015-33.724 15.728-33.724 34.313v94.248c0 15.201 3.986 30.211 11.527 43.409l28.473 49.829v37.45c0 4.143 3.357 7.5 7.5 7.5s7.5-3.357 7.5-7.5v-39.44c0-1.305-.341-2.588-.988-3.721l-29.461-51.559c-6.248-10.935-9.551-23.373-9.551-35.968v-94.248c0-10.461 8.58-19.305 18.734-19.313h.014c9.948 0 18.146 7.746 18.715 17.655v9.005c0 4.142 3.357 7.5 7.5 7.5s7.5-3.357 7.5-7.5v-8.58c.023-.239.037-.481.037-.726v-18.604c0-10.339 8.411-18.75 18.75-18.75s18.75 8.411 18.75 18.75c0 .093.011.184.014.276-.003.092-.014.183-.014.276v27.358c0 4.142 3.357 7.5 7.5 7.5s7.5-3.357 7.5-7.5v-27.358c0-.093-.011-.184-.014-.276.003-.092.014-.183.014-.276 0-10.339 8.411-18.75 18.75-18.75 10.274 0 18.647 8.31 18.749 18.562v.18h.001v.002 27.916c0 4.142 3.357 7.5 7.5 7.5s7.5-3.357 7.5-7.5v-27.918-99.998c0-10.339 8.411-18.75 18.75-18.75s18.75 8.411 18.75 18.75v130.692 58.289c0 4.143 3.357 7.5 7.5 7.5s7.5-3.357 7.5-7.5v-52.192c12.407-.965 24.096 8.903 24.096 22.461v53.562c0 13.784-3.904 27.22-11.292 38.856l-31.98 50.376c-.763 1.202-1.168 2.596-1.168 4.019v39.424c0 4.143 3.357 7.5 7.5 7.5s7.5-3.357 7.5-7.5v-37.242l30.812-48.536c8.915-14.043 13.628-30.258 13.628-46.895v-53.562c0-22.216-18.774-38.448-39.096-37.499v-121.751c0-18.609-15.141-33.749-33.75-33.749s-33.75 15.14-33.75 33.749v4.341h-169.202c-20.571 0-37.5-16.624-37.5-37.499v-73.34c0-20.852 16.91-37.499 37.5-37.499h287.5c20.641 0 37.5 16.701 37.5 37.499v73.339c0 20.645-16.703 37.499-37.5 37.499h-28.3c-4.131 0-7.5 3.37-7.5 7.5 0 4.14 3.369 7.5 7.5 7.5h28.3c29 0 52.5-23.5 52.5-52.499v-73.339c0-29.003-23.508-52.499-52.5-52.499z"/></g></g></svg>