<svg id="Capa_1" enable-background="new 0 0 512 512" height="512" viewBox="0 0 512 512" width="512" xmlns="http://www.w3.org/2000/svg"><g><g><path d="m439.75 289.5h-45v-120.807c5.367 3.6 11.817 5.704 18.75 5.704 18.609 0 33.75-15.141 33.75-33.75v-.643-117.504c0-12.406-10.094-22.5-22.5-22.5-6.87 0-331.192 0-337.5 0-12.406 0-22.5 10.094-22.5 22.5v117.505.643c0 18.609 15.141 33.75 33.75 33.75 6.933 0 13.383-2.104 18.75-5.704v120.806h-45c-12.436 0-22.5 10.062-22.5 22.5v22.5c0 9.766 6.171 18.071 15 21.19v81.31c0 12.406 10.094 22.5 22.5 22.5h7.985c3.705 29.555 28.972 52.5 59.515 52.5s55.81-22.945 59.515-52.5h195.485v45c0 4.143 3.357 7.5 7.5 7.5h10.416c4.143 0 7.5-3.357 7.5-7.5s-3.357-7.5-7.5-7.5h-2.916v-37.5c12.406 0 22.5-10.094 22.5-22.5v-81.31c8.833-3.12 15-11.428 15-21.19v-22.5c0-12.438-10.064-22.5-22.5-22.5zm-97.5-149.495v-125.005h37.5v117.51h-15c-4.141 0-7.5 3.36-7.5 7.49 0 4.14 3.359 7.5 7.5 7.5h13.685c-2.745 6.956-9.517 11.897-17.435 11.897-10.337 0-18.748-8.41-18.75-18.75zm90-117.505v110h-15c-4.141 0-7.5 3.37-7.5 7.51 0 4.13 3.359 7.49 7.5 7.49h13.685c-2.744 6.956-9.516 11.897-17.435 11.897-10.335 0-18.746-8.408-18.75-18.75v-.643-125.004h30c4.136 0 7.5 3.364 7.5 7.5zm-105 110.01h-15c-4.141 0-7.5 3.36-7.5 7.49 0 4.14 3.359 7.5 7.5 7.5h13.686c-2.744 6.956-9.517 11.897-17.436 11.897-10.336 0-18.747-8.409-18.75-18.75v-.643-125.004h37.5zm-90 7.495v-125.005h37.5v117.5h-15c-4.141 0-7.5 3.37-7.5 7.51 0 4.13 3.359 7.49 7.5 7.49h13.685c-2.744 6.955-9.517 11.897-17.435 11.897-10.337 0-18.748-8.41-18.75-18.75zm-15-7.505h-15c-4.141 0-7.5 3.37-7.5 7.51 0 4.13 3.359 7.49 7.5 7.49h13.686c-2.744 6.956-9.517 11.897-17.436 11.897-10.337 0-18.748-8.41-18.75-18.75v-.643-125.004h37.5zm-90 7.505v-125.005h37.5v117.5h-15c-4.141 0-7.5 3.37-7.5 7.5 0 4.14 3.359 7.5 7.5 7.5h13.686c-2.744 6.956-9.517 11.897-17.436 11.897-10.337 0-18.748-8.41-18.75-18.75zm-33.75 19.392c-10.339 0-18.75-8.411-18.75-18.75v-.643-117.504c0-4.136 3.364-7.5 7.5-7.5h30v117.5h-15c-4.141 0-7.5 3.37-7.5 7.5 0 4.14 3.359 7.51 7.5 7.51h13.682c-2.746 6.95-9.517 11.887-17.432 11.887zm33.75 9.297c5.367 3.6 11.817 5.704 18.75 5.704 10.593 0 20.058-4.91 26.25-12.571 6.192 7.66 15.657 12.571 26.25 12.571s20.058-4.91 26.25-12.571c6.192 7.66 15.657 12.571 26.25 12.571s20.057-4.91 26.25-12.571c6.193 7.66 15.658 12.571 26.25 12.571 10.593 0 20.058-4.91 26.25-12.571 6.192 7.66 15.657 12.571 26.25 12.571 6.933 0 13.383-2.104 18.75-5.705v120.807h-247.5zm22.5 328.306c-24.813 0-45-20.187-45-45s20.187-45 45-45 45 20.187 45 45-20.187 45-45 45zm292.5-162.5c-.011 4.13-3.37 7.49-7.5 7.5h-337.5c-4.13 0-7.5 3.359-7.5 7.5 0 4.13 3.37 7.5 7.5 7.5h330v80c0 4.136-3.364 7.5-7.5 7.5h-210.485c-3.705-29.555-28.972-52.5-59.515-52.5s-55.81 22.945-59.515 52.5h-7.985c-4.136 0-7.5-3.364-7.5-7.5 0-18.401 0-69.414 0-87.601-.054-4.107-3.405-7.399-7.5-7.399-4.13-.01-7.49-3.37-7.5-7.5v-22.5c.01-4.13 3.37-7.5 7.5-7.5h367.5c4.13 0 7.489 3.37 7.5 7.5z"/><path d="m177.25 444.5c-4.143 0-7.5 3.357-7.5 7.5 0 8.271-6.729 15-15 15s-15-6.729-15-15 6.729-15 15-15c4.143 0 7.5-3.357 7.5-7.5s-3.357-7.5-7.5-7.5c-16.542 0-30 13.458-30 30s13.458 30 30 30 30-13.458 30-30c0-4.143-3.357-7.5-7.5-7.5z"/></g></g></svg>