<svg id="Capa_1" enable-background="new 0 0 512 512" height="512" viewBox="0 0 512 512" width="512" xmlns="http://www.w3.org/2000/svg"><g><g><path d="m463.399 389.548 17.831-107.202c17.215-1.482 30.77-15.996 30.77-33.625 0-18.609-15.107-33.75-33.677-33.75h-19.224c-3.339-11.113-9.473-21.145-17.979-29.279-8.293-7.932-12.9-18.71-12.9-32.8 8.912-3.139 14.983-11.593 15.001-21.219 0-6.01-2.34-11.66-6.59-15.91s-9.9-6.59-15.91-6.59h-52.499c-6.01 0-11.66 2.34-15.91 6.59s-6.59 9.9-6.59 15.91c0 6.011 2.34 11.66 6.59 15.91 2.412 2.412 5.285 4.184 8.409 5.287 0 14.304-4.731 25.012-12.899 32.823-8.498 8.127-14.639 18.165-17.981 29.278h-17.124v-119.036c0-26.979-15.114-50.493-38.506-59.905-21.065-8.475-44.203-3.27-60.385 13.585-27.311 28.447-42.91 68.866-40.919 112.162-6.57-2.159-13.473-3.282-20.438-3.282-21.719 0-41.663 10.619-53.814 28.179-4.659-4.308-7.712-10.79-7.501-18.371.023-.087.03-1.069.03-1.159.083-11.254-7.84-18.581-17.76-23.54-4.51-2.15-8.391-6.778-8.391-11.71-.021-6.604 7.473-13.85 17.41-12.45 10.889 1.614 21.703-.623 28.36-9.32.01 0 .01-.01.01-.01 3.2-4.11 8.65-6.57 14.59-6.57 6.403.009 12.681 2.844 16.13 8.19 2.9 4.46 7.25 7.859 12.24 9.58 3.938 1.375 8.198-.741 9.55-4.63 1.351-3.91-.72-8.19-4.63-9.54-1.91-.671-3.46-1.881-4.58-3.591-9.411-14.457-28.499-18.502-43.089-12-14.727 6.552-10.052 15.457-26.37 13.051-1 0-13.848-2.773-25.399 7.54-8.941 7.977-12.106 20.433-6.221 31.67v.01c3.74 7.2 9.57 11.189 13.83 13.27.011 0 .011 0 .021.011 4.463 2.146 9.593 5.544 9.29 10.51 0 0-1.73 17.209 12.46 30.22l.09.09c.896.795 1.814 1.526 2.74 2.226-2.705 6.903-3.361 11.802-3.88 14.823h-53.902c-18.57 0-33.677 15.141-33.677 33.75s15.107 33.75 33.677 33.75h2.403l17.056 102.542-46.546 46.544c-8.794 8.792-8.795 23.027-.001 31.82 8.796 8.794 23.025 8.793 31.82 0l23.802-23.803 1.505 9.046c3.02 18.164 18.577 31.348 36.991 31.348h315.869c18.413 0 33.97-13.184 36.992-31.348l.75-4.51 19.266 19.267c4.25 4.249 9.9 6.59 15.91 6.59s11.66-2.341 15.909-6.59c4.25-4.249 6.591-9.899 6.591-15.91s-2.341-11.661-6.59-15.91zm-105.211-193.015c11.142-10.655 17.532-25.922 17.532-41.886v-.476h18.751.19c1.97-.05 3.8-.85 5.18-2.26 1.37-1.41 2.13-3.27 2.13-5.24 0-4.14-3.36-7.5-7.5-7.5-.07 0-.14 0-.21 0h-26.04c-4.13-.01-7.49-3.37-7.5-7.5.01-4.13 3.37-7.489 7.5-7.5h52.499c4.13.011 7.49 3.37 7.5 7.5.01 3.431-2.3 6.42-5.64 7.271-.311.079-.611.183-.906.298-4.557-.582-8.455 2.971-8.455 7.433v7.973c0 15.964 6.391 31.23 17.533 41.886 5.494 5.254 9.714 11.522 12.477 18.439h-97.514c2.764-6.918 6.985-13.189 12.473-18.438zm120.135 33.438c10.299 0 18.678 8.411 18.678 18.75s-8.379 18.75-18.678 18.75c-.039 0-3.51 0-3.47 0-3.559 0-6.741 2.526-7.396 6.27l-17.095 102.771-8.054-8.054c3.275-.806 5.706-3.752 5.706-7.275 0-4.143-3.357-7.5-7.5-7.5h-12.981l-1.671-1.671 4.817-26.435h17.006c4.143 0 7.5-3.357 7.5-7.5s-3.357-7.5-7.5-7.5h-14.273l.776-4.259c.742-4.075-1.959-7.98-6.034-8.724-4.08-.733-7.98 1.96-8.724 6.034l-1.266 6.948h-33.736l-28.105-28.105h88.527c4.141 0 7.5-3.37 7.5-7.5 0-4.141-3.359-7.5-7.5-7.5h-103.527l-31.911-31.911c-2.692-2.691-5.904-4.549-9.313-5.589zm-62.892 95.605-2.467 13.536-13.536-13.536zm-222.607-209.021c5.937-21.497 16.941-41.053 31.822-56.552 12.034-12.532 28.472-16.291 43.966-10.058 17.68 7.114 29.105 25.166 29.105 45.989v119.036h-80.375c-1.358-9.825-4.925-19.216-10.497-27.497-3.488-5.184-7.656-9.774-12.419-13.742 9.23-11.541 18.746-20.659 34.316-21.527-1.034 1.956-1.197 4.349-.237 6.531 1.669 3.791 6.095 5.509 9.886 3.845 5.556-2.444 8.67-8.444 7.575-14.591-1.079-6.057-5.806-10.374-11.761-10.742-18.849-1.165-33.843 7.03-46.434 21.108-.383-14.041 1.295-28.198 5.053-41.8zm84.768 150.825.091.091h-43.362l.091-.091c4.25-4.249 6.591-9.899 6.591-15.91 0-6.01-2.341-11.66-6.59-15.91-2.692-2.691-5.905-4.549-9.315-5.589h61.809c-3.41 1.04-6.622 2.897-9.314 5.589-4.25 4.249-6.591 9.899-6.591 15.91s2.341 11.661 6.59 15.91zm11.314 86.302.731-28.105h31.948l-2.195 28.105zm29.313 15-2.195 28.105h-28.24l.731-28.105zm-28.191-58.106.141-5.408c.108-4.141-3.161-7.585-7.302-7.692-4.138-.106-7.585 3.161-7.692 7.302l-.151 5.799h-32.751l-.151-5.799c-.107-4.142-3.592-7.44-7.692-7.302-4.141.107-7.41 3.552-7.302 7.692l.141 5.408h-36.052l28.105-28.105h73.362l28.105 28.105zm-46.633 43.106-.731-28.105h31.969l-.731 28.105zm30.116 15-.732 28.105h-28.262l-.732-28.105zm-44.73 0 .731 28.105h-29.105l-3.007-28.105zm-32.985-15-3.007-28.105h34.869l.731 28.105zm-92.817-139.767c4.651-22.877 24.818-40.421 49.49-40.421 24.429 0 45.359 17.531 49.686 41.477h-99.481c.123-.341.231-.69.305-1.056zm-53.139 59.825c-.586-3.519-3.639-6.253-7.372-6.269-.014 0-.009-.001-.026-.001h-8.759c-10.299 0-18.678-8.411-18.678-18.75s8.379-18.75 18.678-18.75h178.226c-3.41 1.04-6.623 2.897-9.315 5.589l-31.911 31.911h-98.239c-4.14 0-7.5 3.359-7.5 7.5 0 4.13 3.36 7.5 7.5 7.5h83.239l-28.105 28.105h-28.445l-1.266-6.948c-.743-4.074-4.644-6.768-8.724-6.034-4.075.743-6.776 4.648-6.034 8.724l.776 4.259h-14.273c-4.143 0-7.5 3.357-7.5 7.5s3.357 7.5 7.5 7.5h17.006l4.001 21.959-6.146 6.146h-7.691c-4.143 0-7.5 3.357-7.5 7.5 0 2.12.883 4.03 2.297 5.395l-5.399 5.399zm62.738 51.836-9.061 9.062-1.651-9.062zm-84.77 127.196c-2.93 2.932-7.674 2.932-10.606 0-2.93-2.93-2.931-7.675.001-10.605l195.998-196c1.462-1.463 3.382-2.193 5.303-2.193s3.841.73 5.303 2.193h.001c1.416 1.416 2.196 3.3 2.196 5.303s-.78 3.887-2.197 5.303zm154.508-84.09 3.007 28.105h-27.511l-3.88-28.105zm-30.454-15-.455-3.295 24.81-24.811h1.489l3.007 28.105h-28.851zm-9.192 43.105h-27.829l-1.516-8.318 19.787-19.787h5.678zm296.107 49.375c-1.812 10.898-11.147 18.809-22.195 18.809h-315.869c-11.048 0-20.382-7.91-22.194-18.809l-3.264-19.623 14.752-14.752h12.319l3.088 16.949c.736 4.036 4.601 6.777 8.724 6.034 4.075-.743 6.776-4.648 6.034-8.724l-2.598-14.26h27.166l2.296 16.63c.566 4.097 4.343 6.97 8.455 6.404 4.103-.566 6.971-4.352 6.404-8.455l-2.012-14.579h27.045l1.755 16.402c.441 4.126 4.147 7.102 8.255 6.659 4.118-.44 7.101-4.136 6.659-8.255l-1.584-14.807h27.891l.411 15.8c.109 4.195 3.622 7.421 7.692 7.302 4.141-.107 7.41-3.552 7.302-7.692l-.401-15.409h27.482l-.401 15.409c-.108 4.141 3.161 7.585 7.302 7.692.066.002.133.003.199.003 4.052 0 7.388-3.23 7.493-7.305l.411-15.8h27.46l-1.173 15.021c-.339 4.345 3.088 8.084 7.485 8.084 3.877 0 7.162-2.985 7.47-6.916l1.264-16.188h27.605l-2.097 14.533c-.649 4.498 2.831 8.572 7.433 8.572 3.667 0 6.874-2.693 7.413-6.43l2.406-16.676h27.064l-2.598 14.26c-.742 4.075 1.959 7.98 6.034 8.724 4.119.742 7.987-1.994 8.724-6.034l3.088-16.949h7.028l19.289 19.289zm-75.053-77.48-4.056 28.105h-28.598l2.195-28.105zm-29.288-15 2.134-27.323 27.323 27.323zm40.387 43.105 4.056-28.105h.014l24.263 24.263-.7 3.843h-27.633zm119.98 55.985c-1.416 1.417-3.3 2.197-5.303 2.197s-3.887-.78-5.303-2.197l-195.999-196c-1.416-1.416-2.196-3.3-2.196-5.303s.78-3.887 2.197-5.303c1.462-1.463 3.382-2.193 5.303-2.193s3.841.73 5.303 2.193l195.999 196c1.416 1.416 2.196 3.3 2.196 5.303s-.78 3.887-2.197 5.303z"/><circle cx="125.5" cy="201.482" r="7.5"/><circle cx="144.968" cy="188.495" r="7.5"/><circle cx="166.968" cy="199.495" r="7.5"/></g></g></svg>