<svg id="Capa_1" enable-background="new 0 0 512 512" height="512" viewBox="0 0 512 512" width="512" xmlns="http://www.w3.org/2000/svg"><g><g><g><path d="m407.824 441.025c-16.183-5.783-39.074-10.557-66.202-13.806-4.107-.501-7.846 2.441-8.339 6.555-.492 4.112 2.442 7.846 6.556 8.339 67.911 8.134 82.611 22.092 82.611 25.111 0 1.98-7.641 11.015-45.021 19.024-32.353 6.934-75.478 10.752-121.429 10.752-45.952 0-89.076-3.818-121.43-10.751-37.379-8.01-45.02-17.044-45.02-19.024 0-3.02 14.7-16.978 82.611-25.111 4.113-.493 7.047-4.227 6.555-8.339-.493-4.113-4.222-7.059-8.339-6.555-27.127 3.249-50.019 8.022-66.201 13.806-19.935 7.124-29.626 15.694-29.626 26.199 0 14.47 18.604 25.49 56.877 33.691 33.356 7.147 77.597 11.084 124.573 11.084 46.977 0 91.217-3.937 124.573-11.084 38.272-8.201 56.877-19.222 56.877-33.691 0-10.505-9.69-19.075-29.626-26.2z"/><path d="m373.5 183c0-64.79-52.71-117.5-117.5-117.5s-117.5 52.71-117.5 117.5 52.71 117.5 117.5 117.5 117.5-52.71 117.5-117.5zm-117.5 102.5c-56.519 0-102.5-45.981-102.5-102.5s45.981-102.5 102.5-102.5 102.5 45.981 102.5 102.5-45.981 102.5-102.5 102.5z"/><path d="m224.789 479.693c6.841 10.702 18.508 17.092 31.211 17.092 12.702 0 24.37-6.39 31.211-17.092 2.23-3.49 1.21-8.128-2.28-10.358-3.489-2.23-8.129-1.213-10.358 2.28-4.07 6.368-11.014 10.17-18.572 10.17s-14.501-3.802-18.572-10.17l-124.78-195.22c-17.434-27.274-26.649-58.883-26.649-91.411 0-93.729 76.262-169.984 170-169.984s170 76.255 170 169.984c0 32.528-9.215 64.138-26.647 91.411l-109.284 170.974c-2.23 3.49-1.21 8.128 2.28 10.358 3.488 2.23 8.128 1.21 10.358-2.28l109.283-170.974c18.979-29.689 29.01-64.092 29.01-99.489 0-102.001-82.99-184.984-185-184.984-102.009 0-185 82.983-185 184.984 0 35.396 10.031 69.799 29.009 99.489z"/><path d="m307.88 125.997h-96.259c-4.381 0-8.53 1.907-11.384 5.232s-4.108 7.717-3.442 12.049l6.062 39.4c2.079 13.512 13.51 23.318 27.181 23.318h59.099l-2.308 15h-66.792c-4.143 0-7.5 3.357-7.5 7.5s3.357 7.5 7.5 7.5h7.786c-3.395.717-5.943 3.729-5.943 7.336 0 4.143 3.357 7.5 7.5 7.5 4.142 0 7.5-3.357 7.5-7.5 0-3.607-2.549-6.619-5.943-7.336h42.554c-3.395.717-5.944 3.728-5.944 7.336 0 4.143 3.358 7.5 7.5 7.5s7.5-3.357 7.5-7.5c0-3.608-2.549-6.619-5.944-7.336h16.661c3.702 0 6.85-2.701 7.413-6.359l4.59-29.838c.019-.102.034-.204.048-.307l9.979-64.855c.332-2.163-.296-4.363-1.721-6.024-1.426-1.66-3.505-2.616-5.693-2.616zm-16.435 65h-61.407c-6.214 0-11.41-4.458-12.354-10.6l-6.062-39.4h87.517z"/></g></g></g></svg>