<svg id="Capa_1" enable-background="new 0 0 512 512" height="512" viewBox="0 0 512 512" width="512" xmlns="http://www.w3.org/2000/svg"><g><g><path d="m490.667 219.064c-14.421-12.689-33.92-17.926-53.484-14.367-16.494 2.999-28.466 17.348-28.466 34.117v24.675c0 15.208 9.845 28.426 23.98 32.995-14.758 64.79-63.99 116.383-128.036 134.186-5.15-12.922-17.826-21.911-32.235-21.911h-32.591c-17.258 0-32.03 12.896-34.361 29.995-1.282 9.405-.737 18.505 1.489 26.97-7.128-.861-13.92-2.102-20.531-3.762-100.937-25.353-171.432-115.845-171.432-220.063 0-125.112 101.775-226.899 226.874-226.899 97.691 0 183.603 62.243 214.695 153.368-3.066-.542-6.269.868-7.864 3.744-2.008 3.623-.699 8.187 2.923 10.196l13.356 7.405c.353.213.724.393 1.108.545.008.003.016.006.023.009.574.227 1.175.384 1.796.464.028.004.056.005.084.008.255.03.513.046.773.049.036.001.073.007.109.007.033 0 .066-.006.099-.007.273-.004.547-.022.822-.057.051-.006.101-.008.152-.016.26-.038.521-.089.782-.156.036-.009.069-.022.104-.032.036-.01.073-.013.109-.023.127-.036.249-.084.373-.127.065-.022.132-.043.197-.067.182-.068.358-.146.533-.228.047-.022.096-.042.143-.065.189-.093.372-.196.552-.304.027-.017.055-.031.082-.048.199-.124.392-.257.579-.398.003-.002.007-.005.01-.007.82-.624 1.514-1.411 2.024-2.33l7.545-13.616c2.007-3.623.697-8.188-2.926-10.195-3.016-1.671-6.682-1.037-8.985 1.313-32.885-97.653-124.724-164.432-229.198-164.432-64.607 0-125.347 25.162-171.031 70.851s-70.843 106.435-70.843 171.048c0 54.995 17.985 106.819 52.01 149.871 33 41.754 79.442 71.848 130.769 84.741 9.777 2.455 19.871 4.077 30.728 4.942 2.206 3.735 4.803 7.262 7.813 10.518 11.875 12.845 28.441 20.029 45.913 20.029 1.214 0 2.433-.035 3.654-.105 62.954-3.601 122.172-30.24 166.745-75.011 44.6-44.799 70.98-104.195 74.28-167.244 1.013-19.369-6.731-37.803-21.245-50.576zm6.265 49.792c-6.435 122.986-103.982 221.032-226.902 228.064-14.315.802-28.05-4.698-37.697-15.132-9.884-10.691-14.144-25.254-11.996-41.007 1.323-9.704 9.706-17.022 19.499-17.022h32.591c9.667 0 17.947 7.135 19.432 16.655v3.362c0 4.143 3.357 7.5 7.5 7.5 3.484 0 6.405-2.379 7.247-5.599 34.706-9.246 66.143-27.855 91.204-54.065 25.076-26.224 42.249-58.482 49.908-93.606 3.177-.872 5.514-3.772 5.514-7.226 0-4.143-3.357-7.5-7.5-7.5h-3.52l-2.334-.425c-9.364-1.702-16.161-9.848-16.161-19.367v-24.675c0-9.516 6.792-17.658 16.149-19.359 15.254-2.769 29.773 1.088 40.891 10.871 11.052 9.726 16.948 23.769 16.175 38.531z"/><path d="m380.128 78.377c-2.928-2.928-7.677-2.929-10.606.001l-290.154 290.184c-2.929 2.929-2.928 7.678 0 10.606 1.465 1.464 3.384 2.196 5.303 2.196s3.839-.732 5.304-2.197l290.154-290.183c2.928-2.929 2.928-7.678-.001-10.607z"/><path d="m107.511 173.278-41.438 36.212c-5.205 4.549-1.977 13.156 4.938 13.156h50.026c4.144 0 7.504-3.398 7.504-7.544 0-4.145-3.36-7.504-7.504-7.504h-29.963l26.335-22.985c22.539-19.673 8.637-57.065-21.385-57.065-30.763 0-41.215 40.045-24.994 40.045 4.142 0 7.504-3.358 7.504-7.505 0-9.645 7.846-17.492 17.49-17.492 16.088 0 23.645 20.06 11.487 30.682z"/><path d="m147.954 146.613-15.991 46.055c-1.691 4.873 1.933 9.966 7.089 9.966h37.499c-.002 12.85-.645 14.964 2.207 17.814 4.72 4.724 12.841 1.339 12.841-5.326v-12.488h12.469c4.145 0 7.504-3.359 7.504-7.505 0-4.296-3.456-7.543-7.504-7.543h-12.469l-.039-52.521c-.004-4.142-3.362-7.498-7.504-7.498-4.143 0-7.504 3.358-7.504 7.504v52.514h-26.917c.155-.446 12.413-35.648 12.534-36.105 2.66-10.124-11.138-13.733-14.215-4.867z"/><path d="m276.269 341.901c1.075.537 2.217.792 3.342.792 2.751 0 5.4-1.521 6.713-4.15l39.982-80.104c1.16-2.324 1.035-5.083-.332-7.292-1.366-2.209-3.778-3.553-6.375-3.553h-45.956c-4.14 0-7.496 3.356-7.496 7.497s3.356 7.497 7.496 7.497h33.836l-34.568 69.259c-1.85 3.703-.346 8.205 3.358 10.054z"/></g></g></svg>