<svg id="Capa_1" enable-background="new 0 0 512 512" height="512" viewBox="0 0 512 512" width="512" xmlns="http://www.w3.org/2000/svg"><g><g><path d="m474.5 75.805h-40.131c-3.667 0-6.797 2.652-7.398 6.27l-6.388 38.404h-10.79c-1.222-16.658-8.43-32.028-20.645-43.709-8.238-7.88-12.899-18.627-12.899-32.81 8.729-3.097 15-11.433 15-21.21 0-12.406-10.094-22.5-22.5-22.5h-52.5c-12.406 0-22.5 10.094-22.5 22.5 0 9.777 6.271 18.113 15 21.21 0 14.179-4.659 24.928-12.899 32.81-6.311 6.035-11.271 13.062-14.779 20.735-8.732-12.737-22.637-20.345-38.896-21.038-5.35-.188-10.635.51-15.807 2.053-.771-13.354-4.074-28.65-18.236-37.619v.001l-13.858-8.776c-4.284-2.714-9.657-2.478-13.688.603-4.002 3.057-5.633 8.135-4.154 12.938l4.067 13.208c2.043 6.636 5.397 12.805 9.78 18.155-14.249 2.114-26.306 9.774-33.98 21.708-10.763-21.475-32.974-36.259-58.585-36.259-33.58 0-61.323 25.404-65.058 58h-5.156c-15.163 0-27.5 12.337-27.5 27.5v151.271c0 18.33 10.443 34.257 25.687 42.174.242.141.489.27.744.381 6.354 3.159 13.505 4.945 21.069 4.945h8.308c-9.745 9.537-15.808 22.82-15.808 37.5 0 11.961 3.981 23.273 11.305 32.505-7.321 10.163-11.305 22.355-11.305 34.995 0 33.084 26.916 60 60 60s60-26.916 60-60c0-5.124-.657-10.135-1.918-15h80.762c-1.261 4.865-1.918 9.876-1.918 15 0 33.084 26.916 60 60 60s60-26.916 60-60c0-8.135-1.674-16.205-4.872-23.649 2.912-3.622 4.625-8.047 4.846-12.771.294-6.217-1.905-12.114-6.192-16.608-4.226-4.43-10.16-6.971-16.281-6.971h-241.927c-2.07 0-3.998-.825-5.429-2.324-1.428-1.497-2.16-3.467-2.062-5.549.185-3.93 3.734-7.127 7.914-7.127h256.502c42.964 0 79.264-30.761 86.314-73.143l30.407-182.803h.854v7.5c0 12.406 10.094 22.5 22.5 22.5s22.5-10.094 22.5-22.5v-15.001c0-20.677-16.822-37.499-37.5-37.499zm-57.034 63.41-13.93 83.748-20.166 20.157-34.841-34.841 34.841-34.85 5.869 5.87c1.421 1.41 3.301 2.189 5.301 2.189 2.01 0 3.89-.779 5.31-2.189 1.41-1.42 2.19-3.3 2.19-5.3s-.771-3.88-2.19-5.301v-.01l-5.926-5.926zm-124.996 103.905-18.94-18.931c-1.42-1.42-3.3-2.2-5.3-2.2-2.01 0-3.89.78-5.31 2.2-2.92 2.92-2.92 7.681 0 10.61h.02l18.922 18.929-34.847 34.848-34.854-34.847 40.159-40.149 40.15-40.15 34.84 34.85zm45.45-24.24 34.845 34.845-34.846 34.854-34.85-34.85zm-136.36 24.24-18.939-18.931c-1.41-1.42-3.301-2.2-5.301-2.2s-3.89.78-5.3 2.2c-1.42 1.41-2.2 3.3-2.2 5.3s.78 3.891 2.2 5.311h.01l18.93 18.929-34.854 34.847-34.846-34.846 40.15-40.149 40.149-40.15 34.851 34.85zm-56.06 56.06-13.55 13.55c-1.421 1.42-2.2 3.3-2.2 5.311 0 2 .779 3.88 2.2 5.3 1.42 1.42 3.3 2.2 5.3 2.2 2.01 0 3.89-.78 5.31-2.2l13.546-13.546 21.962 21.956h-69.687l-32.571-32.571 34.84-34.85zm21.21 0 34.85-34.85 34.851 34.85-13.551 13.55c-1.42 1.42-2.199 3.3-2.199 5.311 0 2 .779 3.88 2.199 5.3 1.41 1.42 3.29 2.2 5.301 2.2 2 0 3.88-.78 5.3-2.2l13.554-13.548 21.962 21.958h-69.697zm90.91 0 34.84-34.85 34.85 34.85-13.55 13.55c-1.42 1.42-2.2 3.3-2.2 5.311 0 2 .78 3.88 2.2 5.3s3.3 2.2 5.3 2.2c2.01 0 3.891-.78 5.311-2.2l13.55-13.551 20.919 20.92c-3.033.682-6.185 1.041-9.414 1.041h-59.245zm90.909 0 38.351-38.35c.307-.308.574-.64.816-.982.348-.245.68-.515.984-.818l10.624-10.624-7.954 47.819c-1.958 11.768-8.562 21.685-17.757 28.026zm34.731-146.96-8.25-8.25c-1.42-1.42-3.3-2.2-5.31-2.2-2 0-3.881.78-5.301 2.2-1.42 1.41-2.199 3.3-2.199 5.3s.779 3.891 2.199 5.311l8.305 8.305-34.784 34.784-34.795-34.795 27.396-27.396h16.922c.345.048.693.081 1.047.081s.702-.033 1.047-.081h50.465zm-67.011-136.97h52.5c4.136 0 7.5 3.364 7.5 7.5s-3.364 7.5-7.5 7.5h-52.5c-4.136 0-7.5-3.364-7.5-7.5s3.364-7.5 7.5-7.5zm-10.032 72.359c11.142-10.656 17.532-25.922 17.532-41.885v-.474h37.5v.474c0 15.963 6.391 31.229 17.532 41.886 9.226 8.822 14.788 20.348 15.974 32.869h-104.51c1.186-12.521 6.748-24.046 15.972-32.87zm3.094 47.87-16.741 16.741-8.33-8.33c-1.42-1.42-3.3-2.2-5.3-2.2-2.01 0-3.89.78-5.3 2.2-2.93 2.92-2.93 7.68 0 10.61 0 0 0 0 .01.01l8.26 8.26-34.896 34.896-34.849-34.842 27.346-27.346h18.189c.007 0 .013.001.02.001s.013-.001.02-.001h51.571zm-109.205-81.906c7.277 4.608 9.979 12.488 10.961 22.104l-1.376-.905c-7.066-4.926-12.34-12.135-14.856-20.311l-1.616-5.249zm-32.368 55.239c5.83-10.496 16.362-16.822 28.849-17.355 6.861-.26 13.877 1.778 18.397 4.752 1.247.82 2.683 1.234 4.122 1.234 1.222 0 2.445-.298 3.559-.898.496-.268.943-.598 1.357-.959 5.724-2.944 11.65-4.336 17.559-4.131 12.532.534 23.063 6.86 28.874 17.321 1.974 3.6 3.302 7.518 3.986 11.702h-110.67c.683-4.18 2.006-8.088 3.967-11.666zm-1.048 26.667c.007 0 .013.001.02.001s.013-.001.02-.001h51.576l-16.746 16.741-8.33-8.33c-1.42-1.42-3.3-2.2-5.3-2.2-2.01 0-3.89.78-5.3 2.2-1.42 1.42-2.2 3.3-2.2 5.3 0 2.01.78 3.891 2.2 5.311 0 0 0 0 .01.01l8.314 8.314-34.849 34.841-34.841-34.841 27.337-27.346zm-68.976-58c25.297 0 46.306 18.699 49.94 43h-99.88c3.634-24.301 24.643-43 49.94-43zm-82.714 70.5c0-6.893 5.607-12.5 12.5-12.5h8.991l-.831.831c-2.921 2.92-2.921 7.68 0 10.601 1.42 1.42 3.3 2.199 5.3 2.199 2.01 0 3.89-.779 5.3-2.199l11.439-11.432h18.091c.007 0 .013.001.02.001s.013-.001.02-.001h51.567l-16.747 16.741-8.319-8.33c-1.42-1.42-3.301-2.2-5.311-2.2-2 0-3.88.78-5.3 2.2-2.93 2.92-2.93 7.68 0 10.61 0 0 .01 0 .01.01l13.62 13.62 40.15 40.149-34.851 34.841-34.84-34.841 18.93-18.939c1.421-1.42 2.2-3.3 2.2-5.3 0-2.011-.779-3.891-2.2-5.301-1.409-1.42-3.289-2.199-5.3-2.199-2 0-3.88.779-5.3 2.199l-18.935 18.927-40.154-40.146c-1.41-1.42-3.3-2.2-5.3-2.2-1.759 0-3.418.598-4.75 1.698zm0 30.208 4.75-4.757 34.84 34.85-18.93 18.93c-2.931 2.93-2.931 7.689 0 10.609 1.409 1.42 3.3 2.2 5.3 2.2s3.89-.78 5.31-2.2l18.935-18.935 34.845 34.845-34.846 34.846-40.154-40.145c-1.41-1.42-3.3-2.2-5.3-2.2-1.759 0-3.418.598-4.75 1.698zm32.5 153.563c-17.921 0-32.5-14.579-32.5-32.5v-30.16l4.75-4.75 34.85 34.84-9.25 9.24c-2.92 2.93-2.92 7.689 0 10.609 1.42 1.42 3.3 2.2 5.311 2.2 2 0 3.88-.78 5.3-2.2l.01-.01 9.234-9.228 21.963 21.958h-39.668zm52.5 165c-24.813 0-45-20.187-45-45 0-8.788 2.572-17.29 7.326-24.558 8.783 6.201 19.239 9.558 30.174 9.558h49.919c1.708 4.799 2.581 9.824 2.581 15 0 24.813-20.187 45-45 45zm196.926 0c-24.813 0-45-20.187-45-45 0-5.176.873-10.201 2.581-15h79.495c1.734 0 3.445-.196 5.112-.574 1.837 4.968 2.812 10.249 2.812 15.574 0 24.813-20.187 45-45 45zm200.074-368.445c0 4.136-3.364 7.5-7.5 7.5s-7.5-3.364-7.5-7.5v-15c0-4.143-3.357-7.5-7.5-7.5h-14.708c-3.667 0-6.797 2.652-7.398 6.27l-31.45 189.072c-5.842 35.116-35.919 60.604-71.518 60.604h-256.502c-12.275 0-22.334 9.41-22.897 21.422-.294 6.217 1.905 12.114 6.191 16.607 4.227 4.43 10.161 6.971 16.282 6.971h241.926c2.07 0 3.998.825 5.428 2.325 1.429 1.497 2.161 3.467 2.062 5.549-.104 2.236-1.295 4.3-3.265 5.66-1.389.959-2.996 1.466-4.649 1.466h-241.502c-9.812 0-19.094-3.775-26.133-10.631-7.33-7.14-11.367-16.682-11.367-26.87 0-20.678 16.822-37.5 37.5-37.5h256.926c28.233 0 52.088-20.214 56.721-48.064l28.19-169.477.96-5.77.492-2.961 4.936-29.674h33.775c12.406 0 22.5 10.094 22.5 22.5z"/><circle cx="100" cy="451.75" r="7.5"/><circle cx="296.926" cy="451.75" r="7.5"/><circle cx="68.214" cy="103.479" r="7.5"/><circle cx="90.214" cy="92.479" r="7.5"/><circle cx="112.214" cy="103.479" r="7.5"/></g></g></svg>