<svg id="Capa_1" enable-background="new 0 0 512 512" height="512" viewBox="0 0 512 512" width="512" xmlns="http://www.w3.org/2000/svg"><g><g><path d="m362.22 229.933c1.919 0 3.839-.732 5.304-2.196l36.326-36.326c2.929-2.93 2.929-7.678 0-10.607-2.93-2.928-7.678-2.928-10.607 0l-31.022 31.023-25.719-25.719 19.125-19.125c2.929-2.93 2.929-7.678 0-10.607-2.93-2.928-7.678-2.928-10.607 0l-19.127 19.124-25.719-25.719 31.023-31.022c2.929-2.93 2.929-7.678 0-10.607-2.93-2.928-7.678-2.928-10.607 0l-36.326 36.326c-2.929 2.93-2.929 7.678 0 10.607l72.652 72.652c1.465 1.463 3.385 2.196 5.304 2.196z"/><path d="m280.345 308.032c3.771 1.713 8.217.046 9.932-3.725 1.714-3.771.046-8.217-3.725-9.932l-99.896-45.408c-2.846-1.292-6.196-.686-8.407 1.524-2.211 2.211-2.818 5.562-1.524 8.407l45.408 99.896c1.256 2.765 3.981 4.398 6.832 4.398 1.038 0 2.093-.217 3.099-.674 3.771-1.715 5.438-6.161 3.724-9.932l-9.195-20.229 33.523-33.523zm-60.382 9.743-21.307-46.875 46.875 21.307z"/><path d="m304.41 287.742c1.919 0 3.839-.732 5.304-2.196l36.932-36.932c2.929-2.93 2.929-7.678 0-10.607-2.93-2.928-7.678-2.928-10.607 0l-31.628 31.629-67.349-67.35c-2.929-2.928-7.678-2.928-10.606 0-2.929 2.93-2.929 7.678 0 10.607l72.652 72.652c1.463 1.465 3.383 2.197 5.302 2.197z"/><path d="m170.753 390.429c-4.001-1.07-8.112 1.309-9.18 5.312-1.068 4.002 1.31 8.112 5.312 9.181 2.814.752 5.68 1.117 8.528 1.117 8.704 0 17.229-3.421 23.521-9.712 6.268-6.269 9.72-14.603 9.72-23.467s-3.452-17.198-9.72-23.467c-4.126-4.126-9.274-7.099-14.885-8.595-11.138-2.973-21.311 2.479-30.288 7.288-7.162 3.837-13.927 7.466-19.335 6.017-3.067-.819-5.883-2.448-8.145-4.71-7.091-7.091-7.091-18.628 0-25.719 4.577-4.577 11.309-6.381 17.573-4.71 3.999 1.066 8.112-1.31 9.18-5.312s-1.31-8.112-5.312-9.181c-11.42-3.051-23.699.245-32.048 8.595-6.268 6.269-9.72 14.603-9.72 23.467s3.452 17.198 9.72 23.467c4.124 4.123 9.269 7.095 14.881 8.595 11.14 2.973 21.312-2.478 30.289-7.287 7.162-3.837 13.926-7.465 19.337-6.017 3.065.817 5.882 2.445 8.145 4.709 7.091 7.091 7.091 18.628 0 25.719-4.577 4.576-11.312 6.38-17.573 4.71z"/><path d="m504.109 238.42-29.18-25.97 17.021-35.15c1.55-3.2 2.359-6.74 2.359-10.25.01-10-6.34-18.94-15.81-22.24l-13.92-4.84c-.79-.28-1.62-.42-2.46-.42-3.19 0-6.04 2.03-7.08 5.05-1.36 3.9.71 8.181 4.62 9.54h.01l13.899 4.84c3.421 1.17 5.73 4.42 5.74 8.07 0 1.28-.29 2.53-.859 3.72l-19.49 40.25c-1.45 3-.73 6.65 1.77 8.87l33.41 29.73c1.83 1.64 2.84 3.899 2.86 6.38-.021 2.47-1.03 4.74-2.86 6.38l-33.41 29.729c-2.5 2.221-3.22 5.87-1.77 8.87l19.49 40.261c.569 1.18.859 2.42.859 3.71-.01 3.649-2.319 6.899-5.74 8.069l-42.25 14.69c-3.149 1.09-5.22 4.18-5.02 7.52l2.6 44.65c.011.17.011.36.011.51-.011 4.69-3.83 8.51-8.511 8.521-.199 0-.39-.011-.59-.021 0 0 0 0-.01 0l-44.57-2.59c-3.34-.19-6.43 1.87-7.52 5.02l-14.69 42.25c-1.17 3.421-4.42 5.721-8.08 5.74-1.279 0-2.52-.29-3.699-.859l-40.261-19.49c-1.02-.49-2.12-.75-3.26-.75-2.14 0-4.189.92-5.61 2.52l-29.729 33.41c-1.64 1.83-3.91 2.851-6.38 2.86-2.48-.01-4.74-1.03-6.38-2.86l-29.73-33.41c-1.42-1.6-3.47-2.52-5.61-2.52-1.14 0-2.24.26-3.26.75l-40.26 19.49c-1.17.569-2.42.859-3.71.859-3.65-.02-6.9-2.319-8.07-5.74l-14.69-42.25c-1.09-3.149-4.18-5.21-7.52-5.02l-44.65 2.6c-.16.011-.34.011-.52.011-4.68-.011-8.51-3.83-8.52-8.521 0-.17.01-.33.02-.46l2.6-44.7c.19-3.34-1.87-6.43-5.02-7.52l-42.25-14.69c-3.42-1.17-5.73-4.42-5.74-8.069 0-1.29.29-2.53.85-3.7l11.31-23.36c.02-.04.04-.07.05-.11h.01l8.13-16.8c1.45-3 .73-6.649-1.77-8.87l-33.409-29.73c-1.83-1.64-2.85-3.9-2.86-6.38.01-2.48 1.03-4.74 2.86-6.38l33.41-29.73c2.5-2.22 3.22-5.87 1.77-8.87l-19.49-40.26c-.57-1.18-.86-2.43-.86-3.71.01-3.65 2.32-6.9 5.74-8.07l42.25-14.689c3.15-1.101 5.21-4.19 5.02-7.521l-2.6-44.65c-.01-.2-.01-.37-.01-.521 0-4.689 3.82-8.51 8.51-8.52.16 0 .31.01.46.02l44.71 2.601c3.34.199 6.42-1.87 7.52-5.021l14.69-42.25c1.17-3.42 4.42-5.729 8.07-5.74 1.29 0 2.53.29 3.7.86l40.27 19.49c1.02.49 2.12.75 3.26.75 2.14-.01 4.19-.92 5.61-2.521l29.73-33.41c1.64-1.829 3.9-2.85 6.38-2.859 2.51.01 4.72 1 6.38 2.859l29.729 33.41c1.421 1.601 3.471 2.521 5.61 2.521 1.14-.01 2.24-.26 3.26-.75l40.261-19.49c1.17-.57 2.42-.86 3.699-.86 3.66.011 6.91 2.32 8.08 5.74l14.69 42.25c1.09 3.15 4.2 5.23 7.52 5.021l44.65-2.601c.189-.01.36-.02.52-.02 4.681.01 8.5 3.83 8.511 8.52 0 .181-.011.38-.021.59 0 0 0 .011.01.011l-2.59 44.38c-.05.569-.029 1.13.05 1.689l.011.07c.18 1.2.66 2.36 1.399 3.34.601.811 1.34 1.48 2.21 1.99.011.01.021.01.03.02l.03.011c.63.369 1.31.64 2.029.81l.061.01c.88.2 1.8.24 2.7.12 1.39-.2 2.7-.78 3.779-1.689l.04-.04c.011 0 .021-.011.021-.011.37-.319.71-.67 1.02-1.069l.04-.04c.88-1.15 1.41-2.521 1.53-3.96.01-.07.01-.141.021-.21l2.59-44.63.01-.07c.02-.47.03-.9.03-1.32-.011-6.28-2.46-12.18-6.891-16.62-4.439-4.439-10.34-6.89-16.62-6.89-.479 0-.949.01-1.42.04l-38.96 2.27-12.83-36.901c-3.3-9.46-12.229-15.811-22.21-15.811h-.06c-3.5 0-7.03.811-10.22 2.36l-35.15 17.02-25.969-29.179c-4.45-5.02-10.85-7.89-17.54-7.89h-.08c-6.7 0-13.09 2.87-17.54 7.89l-25.97 29.18-35.15-17.02c-3.18-1.55-6.71-2.36-10.22-2.36h-.07c-9.98 0-18.9 6.351-22.2 15.811l-12.82 36.899-38.92-2.27c-.01 0-.01 0-.01 0-.48-.03-.97-.05-1.46-.05-6.28.01-12.18 2.46-16.62 6.899-4.44 4.44-6.89 10.34-6.89 16.62 0 .46.01.92.04 1.4l2.27 38.979-36.9 12.83c-9.47 3.3-15.83 12.24-15.81 22.24 0 3.51.81 7.05 2.36 10.25l17.02 35.15-29.18 25.972c-5.03 4.46-7.9 10.87-7.89 17.58-.01 6.71 2.86 13.109 7.89 17.58l29.18 25.97-17.02 35.15c-1.55 3.18-2.36 6.72-2.36 10.25-.02 9.989 6.34 18.93 15.81 22.239l36.9 12.83-2.27 38.99v.01c-.03.42-.04.86-.04 1.37 0 6.29 2.45 12.19 6.89 16.63s10.34 6.88 16.62 6.891c.43 0 .89-.011 1.39-.04l39-2.271 12.82 36.891c3.3 9.46 12.22 15.819 22.21 15.819h.06c3.5 0 7.03-.819 10.21-2.359l35.16-17.021 25.97 29.18c4.45 5.011 10.84 7.891 17.52 7.891h.06.05c6.69 0 13.08-2.88 17.53-7.891l25.97-29.18 35.15 17.021c3.18 1.54 6.72 2.359 10.22 2.359h.06c9.98 0 18.91-6.359 22.21-15.81l12.82-36.9 39 2.271.06.01c.48.02.91.03 1.33.03 6.28-.011 12.181-2.46 16.62-6.891 4.44-4.439 6.88-10.34 6.891-16.63 0-.479-.011-.93-.04-1.38l-2.271-38.99 36.9-12.83c9.47-3.31 15.819-12.25 15.81-22.239 0-3.521-.81-7.061-2.359-10.24l-17.021-35.16 29.18-25.97c5.03-4.471 7.9-10.88 7.891-17.58.009-6.71-2.861-13.12-7.892-17.58z"/></g></g></svg>