<svg id="Capa_1" enable-background="new 0 0 512 512" height="512" viewBox="0 0 512 512" width="512" xmlns="http://www.w3.org/2000/svg"><g><g><path d="m477.234 145.476c0-53.154-64.637-80.19-102.403-42.427-7.912 7.914-13.435 17.856-15.97 28.753-4.743 20.384 1.228 41.356 15.971 56.101 11.685 11.684 27.855 18.206 44.928 17.492v158.105c-.01 4.13-3.37 7.49-7.5 7.5h-354.99c-4.13-.01-7.5-3.37-7.5-7.5v-215c0-4.13 3.37-7.49 7.5-7.5h278.9c4.13 0 7.49-3.36 7.49-7.5 0-4.13-3.36-7.5-7.49-7.5h-278.9c-6.02.01-11.67 2.35-15.91 6.59-4.25 4.25-6.59 9.9-6.59 15.91v215c0 12.468 10.094 22.5 22.5 22.5h44.496c1.632 13.196 7.539 25.393 17.071 34.924 11.317 11.317 26.385 17.549 42.427 17.549 31.079 0 55.888-23.287 59.498-52.474h191.5c12.378 0 22.5-10.013 22.5-22.5v-160.646c9.387-2.845 17.914-7.939 24.926-14.95 11.314-11.317 17.546-26.384 17.546-42.427zm-284.152 264.842c-8.483 8.483-19.783 13.156-31.819 13.156s-23.336-4.672-31.82-13.156c-6.692-6.692-11-15.14-12.526-24.317h15.295c1.322 5.139 3.994 9.852 7.848 13.7 5.66 5.67 13.19 8.79 21.2 8.8 2.39 0 4.77-.29 7.06-.84 1.95-.47 3.601-1.68 4.641-3.39s1.359-3.72.89-5.67c-.82-3.37-3.81-5.73-7.28-5.73-1.852 0-2.451.63-5.31.63-5.52-.013-10.347-3.034-12.951-7.5h57.301c-1.528 9.176-5.836 17.625-12.529 24.317zm232.759-220.686c-14.735 2.837-29.839-1.773-40.402-12.336-11.055-11.055-15.528-26.791-11.968-42.095 1.899-8.165 6.038-15.616 11.967-21.545 8.774-8.774 20.296-13.159 31.821-13.159 24.713 0 44.976 19.903 44.976 44.979 0 12.036-4.672 23.336-13.155 31.819-6.372 6.371-14.407 10.637-23.239 12.337z"/><path d="m417.259 115.476c-4.143 0-7.5 3.358-7.5 7.5s3.357 7.5 7.5 7.5c8.271 0 15 6.729 15 15s-6.729 15-15 15-15-6.729-15-15c0-4.142-3.357-7.5-7.5-7.5s-7.5 3.358-7.5 7.5c0 16.542 13.458 30 30 30s30-13.458 30-30-13.458-30-30-30z"/><path d="m94.741 89.976c16.542 0 30-13.458 30-30s-13.458-30-30-30c-4.143 0-7.5 3.358-7.5 7.5s3.357 7.5 7.5 7.5c8.271 0 15 6.729 15 15s-6.729 15-15 15-15-6.729-15-15c0-4.142-3.357-7.5-7.5-7.5s-7.5 3.358-7.5 7.5c0 16.542 13.458 30 30 30z"/><path d="m94.741 119.951c53.147 0 80.197-64.631 42.427-102.401-11.317-11.318-26.385-17.55-42.427-17.55-33.191 0-59.975 26.777-59.975 59.976 0 33.192 26.778 59.975 59.975 59.975zm0-104.951c12.036 0 23.336 4.672 31.819 13.156 28.296 28.296 8.081 76.795-31.819 76.795-24.901 0-44.976-20.068-44.976-44.975.001-24.9 20.069-44.976 44.976-44.976z"/><path d="m272.341 409.598c-23.394 23.394-23.394 61.458 0 84.853 11.317 11.317 26.385 17.549 42.427 17.549 16.043 0 31.11-6.232 42.427-17.549 11.316-11.316 17.549-26.383 17.549-42.426 0-16.042-6.232-31.11-17.549-42.426-23.393-23.394-61.458-23.395-84.854-.001zm74.246 74.246c-8.483 8.484-19.783 13.156-31.819 13.156s-23.336-4.672-31.819-13.156c-17.546-17.545-17.546-46.094 0-63.64 17.545-17.545 46.094-17.544 63.639 0 8.484 8.483 13.156 19.784 13.156 31.82-.001 12.037-4.673 23.337-13.157 31.82z"/><path d="m314.768 422.024c-4.143 0-7.5 3.358-7.5 7.5s3.357 7.5 7.5 7.5c8.271 0 15 6.729 15 15s-6.729 15-15 15-15-6.729-15-15c0-4.142-3.357-7.5-7.5-7.5s-7.5 3.358-7.5 7.5c0 16.542 13.458 30 30 30s30-13.458 30-30-13.458-30-30-30z"/><path d="m404.76 223.5c0-4.087-3.326-7.5-7.5-7.5-13.99 0-27.16-5.47-37.1-15.39-9.931-9.94-15.4-23.12-15.4-37.11 0-4.087-3.326-7.5-7.5-7.5h-204.99c-4.131 0-7.5 3.351-7.5 7.5-.01 13.99-5.47 27.17-15.399 37.11-9.941 9.92-23.121 15.39-37.101 15.39-4.17 0-7.5 3.395-7.5 7.5v65c0 4.146 3.368 7.5 7.5 7.5h.021c19.14 0 36.79 10.48 46.05 27.35 1.32 2.41 3.84 3.9 6.59 3.9 1.25 0 2.49-.32 3.59-.93 3.63-1.99 4.96-6.55 2.971-10.18-10.58-19.32-29.91-32.3-51.721-34.73v-50.82c7.66-.86 15.061-3 21.98-6.38 6.76-3.29 12.89-7.66 18.229-13 5.33-5.33 9.71-11.46 13-18.22 3.38-6.93 5.521-14.32 6.37-21.99h190.82c1.681 15.176 8.508 29.358 19.38 40.21 10.664 10.683 24.747 17.646 40.21 19.38v50.82c-7.67.86-15.07 3-21.99 6.38-6.76 3.29-12.89 7.66-18.22 13-10.859 10.859-17.692 24.993-19.38 40.21h-197.9c-4.14 0-7.5 3.36-7.5 7.5 0 4.146 3.368 7.5 7.5 7.5h204.99c4.077 0 7.5-3.319 7.5-7.5 0-13.99 5.47-27.17 15.4-37.1s23.109-15.4 37.1-15.4c4.077 0 7.5-3.319 7.5-7.5z"/><path d="m83.266 171.002c.542 0 1.583.133 2.475 1.025 2.929 2.929 7.678 2.929 10.606 0 2.929-2.929 2.929-7.678 0-10.606-7.229-7.229-18.932-7.231-26.163 0-7.23 7.23-7.231 18.933 0 26.163 2.929 2.929 7.678 2.929 10.606 0 2.929-2.929 2.929-7.678 0-10.606-.892-.892-1.025-1.934-1.025-2.475s.133-1.583 1.025-2.475c.893-.893 1.934-1.026 2.476-1.026z"/><path d="m383.784 339.973c-2.929-2.929-7.678-2.929-10.606 0-2.929 2.929-2.929 7.678 0 10.606 7.214 7.214 18.949 7.213 26.164 0 7.212-7.213 7.212-18.95 0-26.163-2.93-2.929-7.678-2.928-10.607 0-2.929 2.929-2.929 7.678 0 10.607 1.365 1.365 1.365 3.585 0 4.95-1.366 1.364-3.586 1.364-4.951 0z"/><path d="m80.782 324.416c-2.929-2.928-7.677-2.928-10.607 0-7.212 7.213-7.212 18.95 0 26.163 7.214 7.213 18.95 7.214 26.164 0 2.929-2.929 2.929-7.678 0-10.606-2.929-2.929-7.678-2.929-10.606 0-1.365 1.364-3.585 1.364-4.95 0-1.364-1.365-1.364-3.585 0-4.95 2.928-2.929 2.928-7.678-.001-10.607z"/><path d="m292.263 256c0-38.598-25.794-70-57.5-70s-57.5 31.402-57.5 70 25.794 70 57.5 70 57.5-31.402 57.5-70zm-100 0c0-30.327 19.065-55 42.5-55s42.5 24.673 42.5 55-19.065 55-42.5 55-42.5-24.673-42.5-55z"/><path d="m242.015 286.246v-1.962c6.746-2.842 11.495-9.519 11.495-17.286 0-10.337-8.411-18.748-18.747-18.748-2.067 0-3.75-1.683-3.75-3.749s1.683-3.749 3.75-3.749h9.751c4.143 0 7.5-3.357 7.5-7.5s-3.357-7.5-7.5-7.5h-2.499c0-4.143-3.358-7.498-7.499-7.498-4.142 0-7.5 3.355-7.5 7.498v1.695c-6.479 2.955-11.002 9.479-11.002 17.053 0 10.337 8.41 18.747 18.748 18.747 2.068 0 3.75 1.684 3.75 3.75s-1.684 3.749-3.75 3.749h-11.249c-4.142 0-7.5 3.357-7.5 7.5s3.358 7.5 7.5 7.5h3.502v.5c0 4.142 3.357 7.5 7.5 7.5 4.142-.001 7.5-3.359 7.5-7.5z"/></g></g></svg>