<svg id="Capa_1" enable-background="new 0 0 512 512" height="512" viewBox="0 0 512 512" width="512" xmlns="http://www.w3.org/2000/svg"><g><path d="m463.399 421.577 17.832-107.202c17.215-1.481 30.77-15.996 30.77-33.625 0-18.609-15.107-33.75-33.678-33.75h-99.813l-.009-70.75c5.569-.29 10.8-2.62 14.74-6.561 4.189-4.2 6.579-9.99 6.579-15.899 0-5.931-2.399-11.73-6.6-15.92l-21.31-21.28c-3.984-3.984-9.584-6.58-15.9-6.58-6.211 0-11.781 2.451-15.91 6.58l-21.31 21.28c-4.2 4.189-6.61 9.989-6.601 15.92-.01 5.909 2.391 11.71 6.58 15.89 3.931 3.95 9.17 6.28 14.74 6.57v48.25c0 4.14 3.36 7.5 7.5 7.5 4.13 0 7.5-3.36 7.5-7.5 0-.011 0-.011-.01-.021v-57.1c0-2.57-1.29-4.931-3.46-6.32-2.13-1.36-4.9-1.55-7.19-.479-.99.449-2.09.699-3.18.699-2.03-.01-3.86-.77-5.28-2.189-1.43-1.43-2.189-3.271-2.2-5.3.011-2.04.771-3.87 2.2-5.301l20.88-20.859c1.599-1.252 2.562-2.593 5.74-2.63 3.059.049 4.188 1.333 5.73 2.64l20.88 20.84c1.43 1.431 2.189 3.271 2.199 5.311-.01 2.029-.77 3.87-2.199 5.3-1.42 1.42-3.25 2.18-5.28 2.18-1.1 0-2.2-.24-3.19-.689-2.29-1.07-5.05-.881-7.18.479-2.17 1.39-3.46 3.75-3.46 6.32v79.619h-115.009v-189.63c0-2.57-1.29-4.931-3.46-6.32-2.13-1.36-4.891-1.55-7.19-.49-.99.46-2.09.71-3.189.71-2.03-.01-3.86-.77-5.28-2.189-1.43-1.431-2.19-3.271-2.19-5.301 0-2.04.771-3.869 2.2-5.31l20.86-20.83c1-.744 4.531-4.441 9.29-1.74.843.506 1.467 1.159 2.21 1.74l20.859 20.83c1.431 1.44 2.19 3.27 2.2 5.31-.01 2.04-.76 3.87-2.189 5.301-1.431 1.42-3.25 2.18-5.29 2.189-1.09 0-2.19-.24-3.17-.7-2.301-1.069-5.07-.88-7.2.48-2.16 1.39-3.46 3.75-3.46 6.32v167.13c0 4.14 3.359 7.5 7.5 7.5 4.13 0 7.5-3.36 7.5-7.5v-158.261c5.56-.279 10.79-2.609 14.729-6.55 4.19-4.2 6.59-10 6.58-15.91.01-5.93-2.399-11.729-6.6-15.92l-21.3-21.27c-4.017-4.017-9.697-6.589-15.91-6.589-6.291 0-11.861 2.54-15.91 6.59l-21.3 21.27c-4.21 4.19-6.61 9.99-6.601 15.92-.01 5.92 2.391 11.721 6.58 15.9 3.931 3.95 9.16 6.28 14.73 6.56v180.76h-85.01v-129.62c0-2.57-1.29-4.94-3.461-6.32-2.119-1.37-4.89-1.55-7.18-.49-1 .46-2.109.7-3.2.7-2.029-.01-3.85-.76-5.279-2.18-1.42-1.44-2.181-3.271-2.19-5.311.01-2.029.771-3.869 2.2-5.3l20.87-20.85c1.099-1.083 2.259-2.589 5.74-2.63 3.244.051 4.037 1.343 5.739 2.63l20.88 20.85c1.431 1.431 2.19 3.271 2.2 5.311-.01 2.029-.77 3.87-2.2 5.3-1.42 1.42-3.25 2.17-5.279 2.18-1.101 0-2.2-.24-3.181-.689-2.3-1.07-5.06-.881-7.199.479-2.16 1.38-3.46 3.74-3.46 6.32v107.12c0 4.13 3.369 7.5 7.5 7.5 4.14 0 7.5-3.37 7.5-7.5 0-.011 0-.011 0-.021v-98.24c5.56-.279 10.789-2.609 14.729-6.55 4.2-4.189 6.59-9.99 6.58-15.899.01-5.92-2.39-11.73-6.59-15.92l-21.311-21.28c-9.593-9.27-23.342-8.201-31.819 0l-21.301 21.27c-4.21 4.2-6.609 10-6.6 15.92-.01 5.91 2.39 11.71 6.58 15.9 3.94 3.95 9.17 6.28 14.73 6.56v120.76h-99.809c-18.571 0-33.678 15.141-33.678 33.75s15.107 33.75 33.678 33.75h2.403l17.056 102.542-46.546 46.547c-4.25 4.249-6.591 9.899-6.591 15.91s2.341 11.661 6.59 15.91c4.25 4.249 9.9 6.59 15.91 6.59s11.66-2.341 15.91-6.59l23.803-23.803 1.505 9.046c3.02 18.164 18.577 31.348 36.991 31.348h315.872c18.413 0 33.971-13.184 36.992-31.348l.75-4.51 19.267 19.267c4.25 4.249 9.9 6.59 15.91 6.59s11.66-2.341 15.909-6.59c4.25-4.249 6.591-9.899 6.591-15.91s-2.341-11.661-6.59-15.91zm14.923-159.577c10.299 0 18.678 8.411 18.678 18.75s-8.379 18.75-18.678 18.75h-3.468-.002c-.001 0-.002 0-.002 0-.014 0-.026.002-.04.002-1.79.008-3.525.698-4.76 1.742-1.33 1.107-2.271 2.677-2.594 4.525l-17.095 102.771-8.054-8.054c3.275-.806 5.706-3.752 5.706-7.275 0-4.143-3.357-7.5-7.5-7.5h-12.981l-1.671-1.671 4.817-26.435h17.006c4.143 0 7.5-3.357 7.5-7.5s-3.357-7.5-7.5-7.5h-14.273l.776-4.259c.742-4.075-1.959-7.98-6.034-8.724-4.08-.733-7.98 1.96-8.724 6.034l-1.266 6.948h-33.736l-28.106-28.104h88.528c4.141 0 7.5-3.37 7.5-7.5 0-4.141-3.359-7.5-7.5-7.5h-103.528l-31.911-31.911c-2.692-2.691-5.904-4.549-9.313-5.589zm-62.892 95.605-2.467 13.536-13.536-13.536zm-128.525-95.605c-3.41 1.04-6.622 2.897-9.314 5.589-4.25 4.249-6.591 9.899-6.591 15.91s2.341 11.661 6.59 15.91l.091.091h-43.362l.091-.091c4.25-4.249 6.591-9.899 6.591-15.91 0-6.01-2.341-11.66-6.59-15.91-2.692-2.691-5.905-4.549-9.315-5.589zm1.998 123.711.731-28.105h31.948l-2.195 28.105zm29.314 15-2.195 28.105h-28.241l.731-28.105zm-28.192-58.106.141-5.408c.108-4.141-3.161-7.585-7.302-7.692-4.138-.106-7.585 3.161-7.692 7.302l-.151 5.799h-32.751l-.151-5.799c-.107-4.142-3.592-7.44-7.692-7.302-4.141.107-7.41 3.552-7.302 7.692l.141 5.408h-36.052l28.105-28.105h73.362l28.105 28.105zm-46.633 43.106-.731-28.105h31.97l-.731 28.105zm30.117 15-.732 28.105h-28.263l-.732-28.105zm-44.731 0 .731 28.105h-29.105l-3.007-28.105zm-32.985-15-3.007-28.105h34.87l.731 28.105zm-145.958-79.941c-.009-.056-.053-.249-.069-.326-.737-3.473-3.789-5.928-7.303-5.942-.008 0-.015-.001-.023-.001-.001 0-.002 0-.002 0h-8.76c-10.299-.001-18.678-8.412-18.678-18.751s8.379-18.75 18.678-18.75h178.228c-3.41 1.04-6.623 2.897-9.315 5.589l-31.912 31.911h-98.24c-4.14 0-7.5 3.359-7.5 7.5 0 4.13 3.36 7.5 7.5 7.5h83.24l-28.105 28.105h-28.446l-1.266-6.948c-.743-4.074-4.644-6.768-8.724-6.034-4.075.743-6.776 4.648-6.034 8.724l.776 4.259h-14.273c-4.143 0-7.5 3.357-7.5 7.5s3.357 7.5 7.5 7.5h17.006l4.001 21.959-6.146 6.146h-7.691c-4.143 0-7.5 3.357-7.5 7.5 0 2.12.883 4.03 2.297 5.395l-5.399 5.399zm62.739 51.835-9.061 9.062-1.651-9.062zm-84.771 127.197c-1.416 1.417-3.3 2.197-5.303 2.197s-3.887-.78-5.304-2.197c-1.416-1.416-2.196-3.3-2.196-5.303s.78-3.887 2.197-5.303l196-196c1.462-1.463 3.382-2.193 5.303-2.193s3.841.73 5.303 2.193h.001c1.416 1.416 2.196 3.3 2.196 5.303s-.78 3.887-2.197 5.303zm154.51-84.091 3.007 28.105h-27.511l-3.88-28.105zm-30.455-15-.455-3.295 24.81-24.811h1.489l3.007 28.105h-28.851zm-9.192 43.105h-27.829l-1.516-8.318 19.787-19.787h5.678zm296.11 49.375c-1.812 10.899-11.147 18.809-22.195 18.809h-315.872c-11.048 0-20.382-7.91-22.194-18.809l-3.264-19.623 14.752-14.752h12.319l3.088 16.949c.66 3.62 3.816 6.156 7.37 6.156.446 0 .898-.04 1.354-.122 4.075-.743 6.776-4.648 6.034-8.724l-2.598-14.26h27.167l2.296 16.63c.519 3.756 3.733 6.476 7.42 6.476.342 0 .688-.023 1.035-.071 4.104-.566 6.971-4.352 6.404-8.455l-2.012-14.579h27.045l1.755 16.402c.411 3.848 3.664 6.703 7.448 6.703.266 0 .535-.015.807-.044 4.118-.44 7.101-4.136 6.659-8.255l-1.584-14.807h27.89l.411 15.8c.105 4.074 3.441 7.305 7.493 7.305.066 0 .133-.001.199-.003 4.141-.107 7.41-3.552 7.302-7.692l-.401-15.409h27.482l-.401 15.409c-.108 4.141 3.161 7.585 7.302 7.692.066.002.133.003.199.003 4.052 0 7.388-3.23 7.493-7.305l.411-15.8h27.46l-1.173 15.021c-.322 4.13 2.764 7.738 6.894 8.062.199.016.396.022.592.022 3.877 0 7.162-2.985 7.47-6.916l1.264-16.188h27.605l-2.097 14.533c-.592 4.1 2.252 7.902 6.352 8.494.363.053.724.078 1.081.078 3.667 0 6.874-2.693 7.413-6.43l2.406-16.676h27.064l-2.598 14.26c-.742 4.075 1.959 7.98 6.034 8.724.455.082.907.122 1.354.122 3.554 0 6.71-2.536 7.37-6.156l3.088-16.949h7.028l19.289 19.289zm-75.053-77.48-4.056 28.105h-28.599l2.195-28.105zm-29.289-15 2.134-27.323 27.324 27.323zm40.388 43.105 4.056-28.105h.014l24.263 24.263-.7 3.843h-27.633zm119.981 55.986c-1.416 1.417-3.3 2.197-5.303 2.197s-3.887-.78-5.303-2.197l-196.001-196c-1.416-1.416-2.196-3.3-2.196-5.303s.78-3.887 2.197-5.303c1.462-1.463 3.382-2.193 5.303-2.193s3.841.73 5.303 2.193l196.001 196c1.416 1.416 2.196 3.3 2.196 5.303s-.78 3.887-2.197 5.303z"/></g></svg>